<svg xmlns="http://www.w3.org/2000/svg" viewBox="176.22 412.27 62.20 162.86" fill="#231f20" fill-rule="nonzero" role="img"><path d="M235.22,462.41 L235.22,446.81 C234.89,447.14 234.62,447.47 234.29,447.74 C228.76,453.27 221.62,457.07 213.62,458.41 L213.62,449.47 L213.62,449.27 L213.96,449.21 C215.16,448.87 216.36,448.54 217.56,448.07 C222.56,446.27 226.42,443.27 229.55,439.54 C233.89,434.41 236.22,428.14 236.42,421.81 L236.42,420.67 C236.42,420.21 236.22,419.54 236.09,419.01 C235.22,416.61 232.95,414.81 230.22,414.81 C226.82,414.81 224.09,417.54 224.09,420.94 C224.09,421.54 224.09,422.01 224.02,422.61 C223.36,428.67 219.36,433.81 213.96,436.14 L213.62,436.27 L213.62,420.74 L213.62,420.67 C213.82,417.21 210.89,414.27 207.42,414.27 C203.89,414.27 200.96,417.21 201.16,420.74 L201.16,436.34 C195.49,434.07 191.29,428.81 190.62,422.61 C190.56,422.07 190.56,421.54 190.56,421.01 C190.56,417.61 187.82,414.81 184.42,414.81 C181.69,414.81 179.42,416.61 178.62,419.01 C178.42,419.54 178.22,420.21 178.22,420.67 L178.22,421.81 C178.49,428.87 181.29,435.87 186.76,441.34 C190.82,445.47 195.89,448.14 201.16,449.27 L201.16,449.47 L201.16,458.47 C193.09,457.14 185.89,453.27 180.36,447.74 C180.02,447.47 179.76,447.14 179.42,446.81 L179.42,462.41 C185.76,466.67 193.16,469.54 201.16,470.47 L201.16,480.07 C193.36,479.27 186.02,476.94 179.42,473.41 L179.42,486.67 C186.22,489.54 193.49,491.41 201.16,492.01 L201.16,501.54 C193.56,501.01 186.29,499.34 179.42,496.87 L179.42,509.47 C186.36,511.61 193.62,513.01 201.16,513.47 L201.16,573.14 L213.62,573.14 L213.62,513.47 C221.09,513.01 228.36,511.61 235.22,509.47 L235.22,496.87 C228.42,499.34 221.16,500.94 213.62,501.54 L213.62,492.01 C221.22,491.34 228.49,489.47 235.22,486.67 L235.22,473.41 C228.62,476.94 221.36,479.21 213.62,480.01 L213.62,470.47 C221.56,469.47 228.89,466.67 235.22,462.41 Z"/></svg>