<svg xmlns="http://www.w3.org/2000/svg" viewBox="176.22 180.13 213.53 162.86" fill="#231f20" fill-rule="nonzero" role="img"><path d="M387.75,244.06 L387.75,216.39 L374.75,216.39 L374.75,244.06 L378.68,244.06 L378.68,219.92 L383.82,219.92 L383.82,244.06 L387.75,244.06 Z M369.35,277.26 L373.28,277.26 L373.28,249.59 L369.35,249.59 L364.15,264.86 L364.02,264.86 L358.55,249.59 L354.62,249.59 L354.62,277.26 L358.55,277.26 L358.55,259.92 L358.75,259.92 L362.88,272.46 L364.95,272.46 L369.15,259.92 L369.35,259.92 L369.35,277.26 Z M367.48,244.06 L371.42,244.06 L365.35,216.39 L363.62,216.39 L361.88,216.39 L355.82,244.06 L359.82,244.06 L361.08,238.12 L363.62,238.12 L366.15,238.12 L367.48,244.06 Z M365.68,234.59 L363.62,234.59 L361.48,234.59 L363.55,224.06 L363.62,224.26 L365.68,234.59 Z M353.62,239.12 C353.75,238.39 353.82,237.66 353.82,236.99 L353.82,233.72 C353.82,233.46 353.75,233.19 353.75,232.79 C353.75,232.46 353.68,232.06 353.62,231.66 C353.48,231.26 353.28,230.86 353.08,230.39 C352.82,229.99 352.48,229.52 352.08,229.12 C351.62,228.72 351.15,228.39 350.68,228.19 C350.22,227.99 349.68,227.86 349.22,227.72 C348.75,227.66 348.28,227.59 347.88,227.59 L347.22,227.59 L346.62,227.59 L344.68,227.59 L344.68,220.12 L347.22,220.12 L352.75,220.12 L352.75,216.39 L347.22,216.39 L340.69,216.39 L340.69,244.06 L346.68,244.06 L347.22,244.06 C347.95,243.99 348.55,243.92 349.08,243.79 C349.75,243.66 350.28,243.39 350.75,243.19 C351.22,242.92 351.62,242.66 351.88,242.32 C352.22,242.06 352.48,241.72 352.62,241.46 C353.15,240.66 353.48,239.86 353.62,239.12 Z M349.82,236.39 C349.82,236.86 349.75,237.39 349.68,237.92 C349.55,238.46 349.42,238.92 349.15,239.26 C348.68,239.86 348.22,240.19 347.68,240.32 C347.55,240.32 347.35,240.39 347.22,240.39 C346.88,240.46 346.62,240.52 346.42,240.52 L344.68,240.52 L344.68,231.12 L346.68,231.12 C346.88,231.12 347.08,231.12 347.22,231.19 C347.82,231.26 348.35,231.46 348.75,231.86 C349.22,232.19 349.48,232.66 349.62,233.12 C349.75,233.59 349.82,234.19 349.82,234.86 L349.82,236.39 Z M345.22,252.72 L338.69,266.59 L338.69,249.59 L334.75,249.59 L334.75,277.26 L338.69,277.26 L338.69,274.12 L345.22,260.26 L345.22,277.26 L349.15,277.26 L349.15,249.59 L345.22,249.59 L345.22,252.72 Z M331.35,244.06 L335.29,244.06 L335.29,216.39 L331.35,216.39 L331.35,228.26 L326.02,228.26 L326.02,216.39 L322.09,216.39 L322.09,244.06 L326.02,244.06 L326.02,231.86 L331.35,231.86 L331.35,244.06 Z M314.75,244.06 L318.75,244.06 L312.69,216.39 L310.89,216.39 L309.22,216.39 L303.15,244.06 L307.09,244.06 L308.42,238.12 L310.89,238.12 L313.49,238.12 L314.75,244.06 Z M313.02,234.59 L310.89,234.59 L308.82,234.59 L310.89,224.06 L310.89,224.26 L313.02,234.59 Z M295.75,244.06 L299.69,244.06 L299.69,216.39 L295.75,216.39 L290.62,231.66 L290.42,231.66 L284.95,216.39 L281.02,216.39 L281.02,244.06 L284.95,244.06 L284.95,226.72 L285.15,226.72 L289.35,239.26 L291.42,239.26 L295.55,226.72 L295.75,226.72 L295.75,244.06 Z M284.82,249.59 L280.75,249.59 L279.02,257.52 C278.95,257.92 278.82,258.32 278.75,258.86 C278.62,259.32 278.55,259.86 278.42,260.39 C278.35,260.86 278.29,261.39 278.15,261.86 C278.09,262.39 278.02,262.79 277.95,263.12 L277.89,263.12 L274.09,249.59 L269.55,249.59 L275.75,268.86 L275.29,271.19 C275.22,271.46 275.09,271.72 274.95,272.12 C274.75,272.46 274.62,272.66 274.49,272.86 C274.09,273.26 273.49,273.52 272.62,273.52 L271.69,273.52 L271.69,277.26 L273.09,277.26 C273.62,277.26 274.15,277.26 274.75,277.19 C275.29,277.12 275.89,276.86 276.49,276.52 C277.09,276.19 277.55,275.72 277.95,275.12 C278.29,274.52 278.62,273.86 278.89,273.12 C279.15,272.39 279.35,271.66 279.55,270.86 C279.69,270.06 279.89,269.26 280.09,268.52 L284.82,249.59 Z M273.75,244.06 L277.69,244.06 L271.69,216.39 L269.89,216.39 L268.15,216.39 L262.15,244.06 L266.09,244.06 L267.42,238.12 L269.89,238.12 L272.42,238.12 L273.75,244.06 Z M271.95,234.59 L269.89,234.59 L267.82,234.59 L269.82,224.06 L269.89,224.26 L271.95,234.59 Z M259.42,240.59 C259.62,239.72 259.75,238.99 259.75,238.19 L259.75,234.99 C259.75,234.32 259.69,233.79 259.62,233.19 C259.55,232.59 259.29,231.99 258.95,231.39 C258.82,231.19 258.55,230.92 258.29,230.59 C257.95,230.26 257.55,229.92 256.95,229.66 C257.55,229.32 258.09,228.92 258.55,228.39 C259.09,227.72 259.42,227.06 259.55,226.32 C259.69,225.59 259.75,224.86 259.75,224.06 L259.75,221.72 C259.75,221.12 259.62,220.52 259.49,219.99 C259.35,219.52 259.15,219.06 258.89,218.72 C258.69,218.32 258.42,218.06 258.22,217.79 C257.95,217.59 257.75,217.39 257.55,217.26 C256.95,216.79 256.22,216.46 255.42,216.26 C254.62,216.06 253.82,215.99 253.02,215.99 C251.95,215.99 251.09,216.13 250.35,216.39 C249.69,216.66 249.09,216.99 248.62,217.32 C248.15,217.72 247.75,218.06 247.49,218.46 C247.22,218.86 247.02,219.26 246.89,219.66 C246.69,220.06 246.62,220.46 246.55,220.79 L246.55,221.72 L246.55,224.26 L250.49,224.26 L250.49,222.59 C250.49,222.32 250.49,221.99 250.62,221.59 C250.69,221.26 250.89,220.86 251.22,220.59 C251.69,220.12 252.29,219.86 253.02,219.86 C253.89,219.86 254.49,220.06 254.95,220.46 C255.35,220.79 255.62,221.19 255.69,221.59 C255.75,221.99 255.75,222.39 255.75,222.66 L255.75,224.46 C255.75,224.72 255.75,225.06 255.69,225.59 C255.62,226.06 255.42,226.52 255.02,226.92 C254.75,227.19 254.35,227.39 253.95,227.59 C253.49,227.79 253.02,227.86 252.49,227.86 L251.42,227.86 L251.42,231.39 L252.62,231.39 C253.22,231.39 253.69,231.46 254.02,231.59 C254.35,231.72 254.55,231.86 254.69,231.99 C254.95,232.19 255.15,232.46 255.29,232.72 C255.42,232.99 255.55,233.32 255.62,233.59 C255.69,233.92 255.75,234.19 255.75,234.46 L255.75,235.19 L255.75,237.59 C255.75,238.06 255.75,238.46 255.69,238.86 C255.62,239.26 255.42,239.66 255.09,239.99 C254.89,240.12 254.69,240.26 254.35,240.39 C254.09,240.52 253.69,240.59 253.15,240.59 C252.82,240.59 252.49,240.52 252.09,240.39 C251.69,240.32 251.35,240.12 251.09,239.86 C250.89,239.66 250.75,239.39 250.62,238.99 C250.55,238.59 250.49,238.26 250.49,237.99 L250.49,236.39 L246.55,236.39 L246.55,238.92 C246.55,239.59 246.62,240.12 246.75,240.59 C246.89,240.99 247.09,241.39 247.29,241.79 C247.49,242.12 247.62,242.39 247.82,242.59 C248.02,242.79 248.15,242.92 248.22,242.92 C248.95,243.59 249.69,244.06 250.55,244.19 C251.42,244.39 252.22,244.46 252.95,244.46 C253.82,244.46 254.69,244.32 255.55,244.12 C256.42,243.99 257.22,243.52 257.95,242.86 C258.75,242.12 259.22,241.39 259.42,240.59 Z M229.56,207.39 C233.89,202.26 236.22,195.99 236.42,189.66 L236.42,188.53 C236.42,188.06 236.22,187.39 236.09,186.86 C235.22,184.46 232.95,182.66 230.22,182.66 C226.82,182.66 224.09,185.39 224.09,188.79 C224.09,189.39 224.09,189.86 224.02,190.46 C223.36,196.53 219.36,201.66 213.96,203.99 L213.62,204.13 L213.62,188.59 L213.62,188.53 C213.82,185.06 210.89,182.13 207.42,182.13 C203.89,182.13 200.96,185.06 201.16,188.59 L201.16,204.19 C195.49,201.93 191.29,196.66 190.62,190.46 C190.56,189.93 190.56,189.39 190.56,188.86 C190.56,185.46 187.82,182.66 184.42,182.66 C181.69,182.66 179.42,184.46 178.62,186.86 C178.42,187.39 178.22,188.06 178.22,188.53 L178.22,189.66 C178.49,196.73 181.29,203.73 186.76,209.19 C190.82,213.33 195.89,215.99 201.16,217.13 L201.16,217.32 L201.16,226.32 C193.09,224.99 185.89,221.12 180.36,215.59 C180.02,215.32 179.76,214.99 179.42,214.66 L179.42,230.26 C185.76,234.52 193.16,237.39 201.16,238.32 L201.16,247.92 C193.36,247.12 186.02,244.79 179.42,241.26 L179.42,254.52 C186.22,257.39 193.49,259.26 201.16,259.86 L201.16,269.39 C193.56,268.86 186.29,267.19 179.42,264.72 L179.42,277.32 C186.36,279.46 193.62,280.86 201.16,281.32 L201.16,340.99 L213.62,340.99 L213.62,281.32 C221.09,280.86 228.36,279.46 235.22,277.32 L235.22,264.72 C228.42,267.19 221.16,268.79 213.62,269.39 L213.62,259.86 C221.22,259.19 228.49,257.32 235.22,254.52 L235.22,241.26 C228.62,244.79 221.36,247.06 213.62,247.86 L213.62,238.32 C221.56,237.32 228.89,234.52 235.22,230.26 L235.22,214.66 C234.89,214.99 234.62,215.32 234.29,215.59 C228.76,221.12 221.62,224.92 213.62,226.26 L213.62,217.32 L213.62,217.13 L213.96,217.06 C215.16,216.72 216.36,216.39 217.56,215.92 C222.56,214.13 226.42,211.13 229.56,207.39 Z M251.69,249.59 L247.69,249.59 L247.69,277.26 L251.69,277.26 L251.69,259.92 L251.89,259.92 L256.02,272.46 L258.09,272.46 L262.22,259.92 L262.42,259.92 L262.42,277.26 L266.42,277.26 L266.42,249.59 L262.42,249.59 L257.29,264.86 L257.09,264.86 L251.69,249.59 Z M251.02,283.52 L247.69,283.52 L247.69,284.19 L249.09,284.19 L249.09,288.99 L249.62,288.99 L249.62,284.19 L251.02,284.19 L251.02,283.52 Z M257.61,283.52 L254.54,283.52 L254.54,288.99 L257.68,288.99 L257.68,288.32 L255.08,288.32 L255.08,286.46 L257.41,286.46 L257.41,285.86 L255.08,285.86 L255.08,284.19 L257.61,284.19 L257.61,283.52 Z M262.09,283.52 L260.49,288.99 L261.09,288.99 L261.55,287.32 L262.42,287.32 L263.29,287.32 L263.75,288.99 L264.42,288.99 L262.69,283.52 L262.42,283.52 L262.09,283.52 Z M261.69,286.72 L262.15,285.19 C262.29,284.79 262.35,284.46 262.42,284.12 L262.42,284.26 C262.49,284.52 262.55,284.86 262.69,285.26 L263.15,286.72 L262.42,286.72 L261.69,286.72 Z M267.50,284.72 C267.36,285.12 267.23,285.66 267.23,286.26 C267.23,286.86 267.36,287.32 267.50,287.79 C267.70,288.26 267.90,288.52 268.16,288.72 C268.50,288.99 268.83,289.06 269.16,289.06 C269.63,289.06 270.03,288.92 270.30,288.59 C270.63,288.32 270.83,287.86 270.96,287.26 L270.43,287.06 C270.36,287.52 270.16,287.86 269.96,288.12 C269.76,288.32 269.50,288.46 269.16,288.46 C268.76,288.46 268.43,288.26 268.16,287.86 C267.96,287.52 267.83,286.99 267.83,286.26 C267.83,285.72 267.90,285.32 268.03,284.99 C268.16,284.66 268.30,284.46 268.50,284.32 C268.70,284.12 268.96,284.06 269.23,284.06 C269.76,284.06 270.16,284.46 270.36,285.19 L270.90,285.06 C270.76,284.52 270.56,284.12 270.30,283.86 C269.96,283.59 269.63,283.46 269.23,283.46 C268.90,283.46 268.56,283.59 268.23,283.79 C267.96,283.99 267.70,284.32 267.50,284.72 Z M274.42,283.52 L273.89,283.52 L273.89,288.99 L274.42,288.99 L274.42,286.39 L276.62,286.39 L276.62,288.99 L277.15,288.99 L277.15,283.52 L276.62,283.52 L276.62,285.79 L274.42,285.79 L274.42,283.52 Z M287.15,283.52 L284.29,283.52 L284.29,288.99 L284.82,288.99 L284.82,286.52 L286.82,286.52 L286.82,285.86 L284.82,285.86 L284.82,284.19 L287.15,284.19 L287.15,283.52 Z M299.62,249.59 L287.62,249.59 L287.62,277.26 L291.55,277.26 L291.55,253.32 L299.62,253.32 L299.62,249.59 Z M291.15,284.19 C290.75,284.72 290.55,285.39 290.55,286.32 C290.55,287.06 290.75,287.66 291.09,288.19 C291.49,288.79 291.95,289.06 292.55,289.06 C293.22,289.06 293.69,288.79 294.09,288.26 C294.42,287.72 294.55,287.06 294.55,286.26 C294.55,285.66 294.49,285.19 294.29,284.79 C294.15,284.32 293.89,283.99 293.62,283.79 C293.29,283.59 292.95,283.46 292.55,283.46 C292.02,283.46 291.55,283.72 291.15,284.19 Z M291.15,286.32 C291.15,285.59 291.29,284.99 291.55,284.66 C291.82,284.26 292.15,284.06 292.55,284.06 C292.82,284.06 293.09,284.19 293.29,284.32 C293.55,284.52 293.69,284.72 293.82,284.99 C293.95,285.39 294.02,285.79 294.02,286.26 C294.02,286.99 293.89,287.52 293.62,287.86 C293.29,288.26 292.95,288.46 292.55,288.46 C292.15,288.46 291.82,288.26 291.55,287.92 C291.29,287.52 291.15,286.99 291.15,286.32 Z M303.42,249.59 L297.42,277.26 L301.35,277.26 L302.62,271.32 L305.15,271.32 L307.69,271.32 L309.02,277.26 L312.95,277.26 L306.89,249.59 L305.15,249.59 L303.42,249.59 Z M303.02,267.79 L305.09,257.32 L305.15,257.52 L307.22,267.79 L305.15,267.79 L303.02,267.79 Z M299.82,283.52 L298.15,283.52 L298.15,288.99 L298.75,288.99 L298.75,286.59 L299.35,286.59 C299.55,286.59 299.69,286.59 299.82,286.66 C299.95,286.72 300.02,286.79 300.15,286.92 C300.22,287.12 300.42,287.39 300.62,287.86 L301.15,288.99 L301.89,288.99 L301.15,287.52 C301.02,287.26 300.89,286.99 300.69,286.79 C300.62,286.72 300.49,286.59 300.35,286.52 C300.75,286.46 301.02,286.26 301.22,285.99 C301.42,285.79 301.55,285.46 301.55,285.06 C301.55,284.72 301.49,284.46 301.35,284.19 C301.22,283.99 301.09,283.79 300.89,283.72 C300.69,283.59 300.42,283.52 300.02,283.52 L299.82,283.52 Z M298.75,284.12 L299.82,284.12 L300.02,284.12 C300.35,284.12 300.55,284.26 300.75,284.39 C300.89,284.52 300.95,284.79 300.95,285.06 C300.95,285.19 300.89,285.39 300.82,285.52 C300.75,285.66 300.62,285.79 300.49,285.86 C300.35,285.92 300.15,285.92 299.95,285.92 L299.82,285.92 L298.75,285.92 L298.75,284.12 Z M309.09,283.52 L308.55,283.52 L308.55,288.99 L309.09,288.99 L309.09,287.12 L309.75,286.26 L311.29,288.99 L312.02,288.99 L310.15,285.72 L311.95,283.52 L311.15,283.52 L309.09,286.26 L309.09,283.52 Z M314.15,273.52 L313.75,273.52 L313.75,277.26 L314.62,277.26 C315.42,277.26 316.22,277.19 317.02,276.92 C317.75,276.72 318.49,276.19 319.22,275.39 C319.89,274.72 320.29,274.06 320.55,273.39 C320.82,272.79 321.02,272.12 321.15,271.39 C321.22,271.06 321.29,270.46 321.42,269.66 C321.55,268.86 321.62,267.72 321.75,266.26 C321.75,265.72 321.82,265.19 321.82,264.59 C321.89,263.99 321.89,263.32 321.89,262.66 C321.95,261.92 321.95,261.12 321.95,260.19 C322.02,259.32 322.02,258.26 322.09,257.06 L322.22,253.12 L325.35,253.12 L325.35,277.26 L329.35,277.26 L329.35,249.59 L318.29,249.59 L318.15,257.06 C318.15,257.92 318.15,258.72 318.09,259.39 C318.09,260.06 318.09,260.72 318.02,261.26 C318.02,261.86 317.95,262.39 317.95,262.92 C317.95,263.39 317.89,263.92 317.89,264.52 C317.82,264.86 317.82,265.32 317.75,265.92 C317.75,266.59 317.69,267.19 317.62,267.92 C317.55,268.59 317.49,269.26 317.35,269.86 C317.29,270.46 317.15,270.92 317.09,271.32 C317.02,271.46 316.89,271.72 316.69,272.12 C316.49,272.46 316.15,272.86 315.69,273.12 C315.42,273.32 315.15,273.39 314.89,273.46 C314.62,273.52 314.35,273.52 314.15,273.52 Z M315.62,283.52 L314.89,283.52 L316.55,286.66 L316.55,288.99 L317.09,288.99 L317.09,286.66 L318.75,283.52 L318.09,283.52 L317.29,285.12 C317.15,285.52 316.95,285.79 316.82,286.12 C316.75,285.79 316.55,285.52 316.42,285.19 L315.62,283.52 Z M323.82,283.52 L322.15,283.52 L322.15,288.99 L322.69,288.99 L322.69,286.59 L323.35,286.59 C323.55,286.59 323.69,286.59 323.75,286.66 L323.82,286.66 C323.89,286.72 324.02,286.79 324.09,286.92 C324.22,287.12 324.35,287.39 324.62,287.86 L325.15,288.99 L325.82,288.99 L325.09,287.52 C325.02,287.26 324.82,286.99 324.69,286.79 C324.62,286.72 324.49,286.59 324.35,286.52 C324.69,286.46 325.02,286.26 325.22,285.99 C325.42,285.79 325.49,285.46 325.49,285.06 C325.49,284.72 325.42,284.46 325.35,284.19 C325.22,283.99 325.09,283.79 324.89,283.72 C324.69,283.59 324.42,283.52 324.02,283.52 L323.82,283.52 Z M322.69,284.12 L323.82,284.12 L324.02,284.12 C324.35,284.12 324.55,284.26 324.69,284.39 C324.89,284.52 324.95,284.79 324.95,285.06 C324.95,285.19 324.89,285.39 324.82,285.52 C324.75,285.66 324.62,285.79 324.49,285.86 C324.35,285.92 324.15,285.92 323.89,285.92 L323.82,285.92 L322.69,285.92 L322.69,284.12 Z M329.42,284.72 C329.22,285.19 329.15,285.72 329.15,286.26 C329.15,286.86 329.22,287.39 329.42,287.79 C329.62,288.19 329.89,288.52 330.15,288.72 C330.49,288.92 330.89,289.06 331.29,289.06 C331.62,289.06 331.89,288.99 332.15,288.86 C332.49,288.72 332.75,288.52 333.02,288.19 L333.02,286.19 L331.22,286.19 L331.22,286.86 L332.49,286.86 L332.49,287.86 C332.35,287.99 332.15,288.12 331.95,288.26 C331.69,288.39 331.49,288.39 331.29,288.39 C330.82,288.39 330.42,288.26 330.15,287.86 C329.89,287.52 329.69,286.99 329.69,286.26 C329.69,285.79 329.75,285.39 329.89,285.06 C330.02,284.72 330.22,284.46 330.42,284.32 C330.69,284.12 330.95,284.06 331.22,284.06 C331.42,284.06 331.62,284.12 331.82,284.19 C331.95,284.32 332.09,284.39 332.22,284.59 C332.29,284.72 332.42,284.92 332.49,285.26 L332.95,285.06 C332.89,284.66 332.75,284.39 332.62,284.19 C332.49,283.92 332.29,283.79 332.09,283.66 C331.82,283.52 331.55,283.46 331.22,283.46 C330.82,283.46 330.49,283.59 330.15,283.79 C329.89,283.99 329.62,284.32 329.42,284.72 Z M336.95,283.52 L336.29,283.52 L337.89,286.66 L337.89,288.99 L338.49,288.99 L338.49,286.66 L340.15,283.52 L339.49,283.52 L338.69,285.12 C338.49,285.52 338.35,285.79 338.22,286.12 C338.09,285.79 337.95,285.52 337.82,285.19 L336.95,283.52 Z M345.35,284.86 L343.22,288.32 L343.22,288.99 L346.48,288.99 L346.48,288.32 L343.82,288.32 L344.09,287.92 L346.42,284.19 L346.42,283.52 L343.42,283.52 L343.42,284.19 L345.75,284.19 C345.62,284.39 345.48,284.59 345.35,284.86 Z M350.35,287.19 L349.82,287.26 C349.82,287.79 349.95,288.26 350.28,288.59 C350.62,288.92 351.02,289.06 351.55,289.06 C351.88,289.06 352.15,288.99 352.35,288.86 C352.62,288.72 352.82,288.52 352.95,288.26 C353.08,288.06 353.15,287.72 353.15,287.46 C353.15,287.12 353.08,286.86 352.95,286.66 C352.82,286.39 352.62,286.19 352.35,286.06 C352.22,285.99 351.88,285.92 351.48,285.79 C351.08,285.66 350.82,285.52 350.68,285.39 C350.55,285.26 350.48,285.12 350.48,284.92 C350.48,284.66 350.55,284.46 350.75,284.32 C350.88,284.19 351.15,284.12 351.48,284.12 C351.75,284.12 352.02,284.19 352.15,284.32 C352.35,284.52 352.48,284.79 352.48,285.12 L353.02,285.06 C353.02,284.72 352.95,284.46 352.82,284.19 C352.68,283.99 352.48,283.79 352.28,283.66 C352.02,283.52 351.75,283.46 351.42,283.46 C351.02,283.46 350.62,283.59 350.35,283.86 C350.08,284.19 349.95,284.52 349.95,284.92 C349.95,285.19 350.02,285.39 350.08,285.59 C350.22,285.79 350.35,285.99 350.48,286.06 C350.68,286.19 350.95,286.32 351.35,286.46 C351.75,286.59 352.08,286.72 352.22,286.79 C352.35,286.86 352.42,286.92 352.48,287.06 C352.55,287.19 352.62,287.32 352.62,287.52 C352.62,287.79 352.48,287.99 352.35,288.19 C352.15,288.32 351.88,288.39 351.55,288.39 C351.35,288.39 351.15,288.39 350.95,288.26 C350.75,288.19 350.62,288.06 350.48,287.86 C350.42,287.72 350.35,287.46 350.35,287.19 Z M359.82,283.52 L356.48,283.52 L356.48,284.19 L357.88,284.19 L357.88,288.99 L358.42,288.99 L358.42,284.19 L359.82,284.19 L359.82,283.52 Z M363.95,283.52 L362.35,288.99 L362.95,288.99 L363.42,287.32 L364.28,287.32 L365.15,287.32 L365.68,288.99 L366.28,288.99 L364.55,283.52 L364.28,283.52 L363.95,283.52 Z M363.55,286.72 L364.02,285.19 C364.15,284.79 364.22,284.46 364.28,284.12 L364.28,284.26 C364.35,284.52 364.42,284.86 364.55,285.26 L365.02,286.72 L364.28,286.72 L363.55,286.72 Z M370.15,283.52 L369.62,283.52 L369.62,288.99 L370.15,288.99 L370.15,284.72 L372.35,288.99 L372.95,288.99 L372.95,283.52 L372.42,283.52 L372.42,287.79 L370.15,283.52 Z"/></svg>